<svg width="57" height="50" viewBox="0 0 57 50" fill="none" xmlns="http://www.w3.org/2000/svg">
<path d="M28.5556 3.31247e-07C21.1884 2.43395e-07 14.123 2.63392 8.9137 7.32233C3.70435 12.0107 0.777772 18.3696 0.777771 25C0.777771 31.6304 3.70435 37.9893 8.91369 42.6777C14.123 47.3661 21.1884 50 28.5555 50L28.5555 25L28.5556 3.31247e-07Z" fill="#F11312"/>
<path d="M29.6817 10.473C25.4008 10.473 21.2952 12.0035 18.2682 14.7278C15.2411 17.4522 13.5405 21.1472 13.5405 25C13.5405 28.8528 15.2411 32.5478 18.2682 35.2721C21.2952 37.9965 25.4008 39.527 29.6817 39.527L29.6817 25L29.6817 10.473Z" fill="#060919"/>
<path d="M33.8108 50C39.7841 50 45.5128 47.3661 49.7366 42.6777C53.9604 37.9893 56.3333 31.6304 56.3333 25C56.3333 18.3696 53.9604 12.0107 49.7366 7.32233C45.5128 2.63392 39.7842 3.50116e-07 33.8108 -8.86041e-07L33.8108 25L33.8108 50Z" fill="#014E94"/>
<rect x="28.9072" y="14.1892" width="23.6724" height="21.3052" fill="#014E94"/>
<ellipse cx="29.1305" cy="24.8418" rx="11.8362" ry="10.6526" fill="#014E94"/>
</svg>
