<svg width="1600" height="921" viewBox="0 0 1600 921" fill="none" xmlns="http://www.w3.org/2000/svg">
<line x1="0.500061" y1="2.18557e-08" x2="0.500021" y2="919.282" stroke="white" stroke-opacity="0.2"/>
<line x1="377.842" y1="3.05394e-05" x2="377.842" y2="919.282" stroke="white" stroke-opacity="0.2"/>
<line x1="254.674" y1="3.05394e-05" x2="254.674" y2="919.282" stroke="white" stroke-opacity="0.2"/>
<line x1="625.298" y1="3.05394e-05" x2="625.298" y2="919.282" stroke="white" stroke-opacity="0.2"/>
<line x1="806.691" y1="3.05394e-05" x2="806.691" y2="919.282" stroke="white" stroke-opacity="0.2"/>
<line x1="68.8024" y1="3.05394e-05" x2="68.8023" y2="919.282" stroke="white" stroke-opacity="0.2"/>
<line x1="439.426" y1="3.05394e-05" x2="439.426" y2="919.282" stroke="white" stroke-opacity="0.2"/>
<line x1="316.258" y1="3.05394e-05" x2="316.258" y2="919.282" stroke="white" stroke-opacity="0.2"/>
<line x1="686.882" y1="3.05394e-05" x2="686.882" y2="919.282" stroke="white" stroke-opacity="0.2"/>
<line x1="868.275" y1="3.05394e-05" x2="868.275" y2="919.282" stroke="white" stroke-opacity="0.2"/>
<line x1="926.5" y1="3.05394e-05" x2="926.5" y2="919.282" stroke="white" stroke-opacity="0.2"/>
<line x1="130.386" y1="3.05394e-05" x2="130.386" y2="919.282" stroke="white" stroke-opacity="0.2"/>
<line x1="501.01" y1="3.05394e-05" x2="501.01" y2="919.282" stroke="white" stroke-opacity="0.2"/>
<line x1="193.09" y1="3.05394e-05" x2="193.09" y2="919.282" stroke="white" stroke-opacity="0.2"/>
<line x1="563.714" y1="3.05394e-05" x2="563.714" y2="919.282" stroke="white" stroke-opacity="0.2"/>
<line x1="745.107" y1="3.05394e-05" x2="745.107" y2="919.282" stroke="white" stroke-opacity="0.2"/>
<line x1="926" y1="0.500076" x2="-4.37113e-08" y2="0.499995" stroke="white" stroke-opacity="0.2"/>
<line x1="926" y1="371.124" x2="-1.53025e-05" y2="371.124" stroke="white" stroke-opacity="0.2"/>
<line x1="926" y1="247.956" x2="-1.53025e-05" y2="247.956" stroke="white" stroke-opacity="0.2"/>
<line x1="926" y1="618.58" x2="-3.05613e-05" y2="618.58" stroke="white" stroke-opacity="0.2"/>
<line x1="926" y1="799.973" x2="-3.05613e-05" y2="799.973" stroke="white" stroke-opacity="0.2"/>
<line x1="926" y1="62.0841" x2="-4.37113e-08" y2="62.084" stroke="white" stroke-opacity="0.2"/>
<line x1="926" y1="432.708" x2="-1.53025e-05" y2="432.708" stroke="white" stroke-opacity="0.2"/>
<line x1="926" y1="309.54" x2="-1.53025e-05" y2="309.54" stroke="white" stroke-opacity="0.2"/>
<line x1="926" y1="680.164" x2="-3.05613e-05" y2="680.164" stroke="white" stroke-opacity="0.2"/>
<line x1="926" y1="861.557" x2="-3.05613e-05" y2="861.557" stroke="white" stroke-opacity="0.2"/>
<line x1="926" y1="919.782" x2="-3.05613e-05" y2="919.782" stroke="white" stroke-opacity="0.2"/>
<line x1="926" y1="123.668" x2="-4.37113e-08" y2="123.668" stroke="white" stroke-opacity="0.2"/>
<line x1="926" y1="494.292" x2="-1.53025e-05" y2="494.292" stroke="white" stroke-opacity="0.2"/>
<line x1="926" y1="186.372" x2="-4.37113e-08" y2="186.372" stroke="white" stroke-opacity="0.2"/>
<line x1="926" y1="556.996" x2="-1.53025e-05" y2="556.996" stroke="white" stroke-opacity="0.2"/>
<line x1="926" y1="738.389" x2="-3.05613e-05" y2="738.389" stroke="white" stroke-opacity="0.2"/>
<line x1="1303.84" y1="3.05394e-05" x2="1303.84" y2="919.282" stroke="white" stroke-opacity="0.2"/>
<line x1="1180.67" y1="3.05394e-05" x2="1180.67" y2="919.282" stroke="white" stroke-opacity="0.2"/>
<line x1="1551.3" y1="3.05394e-05" x2="1551.3" y2="919.282" stroke="white" stroke-opacity="0.2"/>
<line x1="994.802" y1="3.05394e-05" x2="994.802" y2="919.282" stroke="white" stroke-opacity="0.2"/>
<line x1="1365.43" y1="3.05394e-05" x2="1365.43" y2="919.282" stroke="white" stroke-opacity="0.2"/>
<line x1="1242.26" y1="3.05394e-05" x2="1242.26" y2="919.282" stroke="white" stroke-opacity="0.2"/>
<line x1="1056.39" y1="3.05394e-05" x2="1056.39" y2="919.282" stroke="white" stroke-opacity="0.2"/>
<line x1="1427.01" y1="3.05394e-05" x2="1427.01" y2="919.282" stroke="white" stroke-opacity="0.2"/>
<line x1="1119.09" y1="3.05394e-05" x2="1119.09" y2="919.282" stroke="white" stroke-opacity="0.2"/>
<line x1="1489.71" y1="3.05394e-05" x2="1489.71" y2="919.282" stroke="white" stroke-opacity="0.2"/>
<line x1="1852" y1="0.500076" x2="926" y2="0.499995" stroke="white" stroke-opacity="0.2"/>
<line x1="1852" y1="371.124" x2="926" y2="371.124" stroke="white" stroke-opacity="0.2"/>
<line x1="1852" y1="247.956" x2="926" y2="247.956" stroke="white" stroke-opacity="0.2"/>
<line x1="1852" y1="618.58" x2="926" y2="618.58" stroke="white" stroke-opacity="0.2"/>
<line x1="1852" y1="799.973" x2="926" y2="799.973" stroke="white" stroke-opacity="0.2"/>
<line x1="1852" y1="62.0841" x2="926" y2="62.084" stroke="white" stroke-opacity="0.2"/>
<line x1="1852" y1="432.708" x2="926" y2="432.708" stroke="white" stroke-opacity="0.2"/>
<line x1="1852" y1="309.54" x2="926" y2="309.54" stroke="white" stroke-opacity="0.2"/>
<line x1="1852" y1="680.164" x2="926" y2="680.164" stroke="white" stroke-opacity="0.2"/>
<line x1="1852" y1="861.557" x2="926" y2="861.557" stroke="white" stroke-opacity="0.2"/>
<line x1="1852" y1="919.782" x2="926" y2="919.782" stroke="white" stroke-opacity="0.2"/>
<line x1="1852" y1="123.668" x2="926" y2="123.668" stroke="white" stroke-opacity="0.2"/>
<line x1="1852" y1="494.292" x2="926" y2="494.292" stroke="white" stroke-opacity="0.2"/>
<line x1="1852" y1="186.372" x2="926" y2="186.372" stroke="white" stroke-opacity="0.2"/>
<line x1="1852" y1="556.996" x2="926" y2="556.996" stroke="white" stroke-opacity="0.2"/>
<line x1="1852" y1="738.389" x2="926" y2="738.389" stroke="white" stroke-opacity="0.2"/>
</svg>
